<?xml version="1.0" encoding="UTF-8" standalone="no"?>
<svg height="24" id="svg11" version="1.1" viewBox="0 0 24 24" width="24" xmlns="http://www.w3.org/2000/svg" xmlns:cc="http://creativecommons.org/ns#" xmlns:dc="http://purl.org/dc/elements/1.1/"
     xmlns:rdf="http://www.w3.org/1999/02/22-rdf-syntax-ns#" xmlns:xlink="http://www.w3.org/1999/xlink">
    <metadata id="metadata15">
        <rdf:RDF>
            <cc:Work rdf:about="">
                <dc:format>image/svg+xml</dc:format>
                <dc:type rdf:resource="http://purl.org/dc/dcmitype/StillImage" />
                <dc:title></dc:title>
            </cc:Work>
        </rdf:RDF>
    </metadata>
    <defs id="defs3">
        <path d="M0 0h24v24H0z" id="a" />
        <path d="M0 0h24v24H0z" id="a-1" />
    </defs>
    <clipPath id="clipPath7">
        <use id="use5" overflow="visible" xlink:href="#a" />
    </clipPath>
    <path d="M 0,0 H 24 V 24 H 0 Z" id="path2678" style="fill:none" />
    <path
        d="M 12 3 C 8.7 3 6 5.7 6 9 C 6 11.958714 8.1726936 14.42763 11 14.908203 L 11 17 L 8 17 C 7.45 17 7 17.45 7 18 C 7 18.55 7.45 19 8 19 L 11 19 L 11 21 C 11 21.55 11.45 22 12 22 C 12.55 22 13 21.55 13 21 L 13 19 L 16 19 C 16.521776 19.173925 17 18.55 17 18 C 17 17.45 16.55 17 16 17 L 13 17 L 13 14.908203 C 15.827306 14.42763 18 11.958714 18 9 C 18 5.7 15.3 3 12 3 z M 12 5 C 14.2 5 16 6.8 16 9 C 16 11.2 14.2 13 12 13 C 9.8 13 8 11.2 8 9 C 8 6.8 9.8 5 12 5 z "
        id="path9" style="stroke-width:0.60000002;fill:#001E50;fill-opacity:1" />
</svg>
