<?xml version="1.0" encoding="UTF-8" standalone="no"?>
<svg height="24" id="svg11" version="1.1" viewBox="0 0 24 24" width="24" xmlns="http://www.w3.org/2000/svg" xmlns:cc="http://creativecommons.org/ns#" xmlns:dc="http://purl.org/dc/elements/1.1/"
     xmlns:rdf="http://www.w3.org/1999/02/22-rdf-syntax-ns#" xmlns:xlink="http://www.w3.org/1999/xlink">
    <metadata id="metadata15">
        <rdf:RDF>
            <cc:Work rdf:about="">
                <dc:format>image/svg+xml</dc:format>
                <dc:type rdf:resource="http://purl.org/dc/dcmitype/StillImage" />
                <dc:title></dc:title>
            </cc:Work>
        </rdf:RDF>
    </metadata>
    <defs id="defs3">
        <path d="M0 0h24v24H0z" id="a" />
        <path d="M0 0h24v24H0z" id="a-2" />
        <path d="M0 0h24v24H0z" id="a-1" />
    </defs>
    <clipPath id="clipPath7">
        <use id="use5" overflow="visible" xlink:href="#a" />
    </clipPath>
    <rect height="24" id="rect839" style="opacity:0.5;fill:none;fill-opacity:1;stroke:none;stroke-width:2;stroke-miterlimit:4;stroke-dasharray:none;stroke-opacity:1" width="24" x="0" y="0" />
    <path
        d="M 15 3 C 14.45 3 14 3.45 14 4 C 14 4.55 14.45 5 15 5 L 17.589844 5 L 14.470703 8.1191406 C 13.488763 7.4176473 12.291784 7 11 7 C 7.7 7 5 9.7 5 13 C 5 16.3 7.7 19 11 19 C 14.3 19 17 16.3 17 13 C 17 11.708525 16.582047 10.511106 15.880859 9.5292969 L 19 6.4101562 L 19 9 C 19 9.55 19.45 10 20 10 C 20.55 10 21 9.55 21 9 L 21 4 C 21 3.45 20.55 3 20 3 L 15 3 z M 11 9 C 13.2 9 15 10.8 15 13 C 15 15.2 13.2 17 11 17 C 8.8 17 7 15.2 7 13 C 7 10.8 8.8 9 11 9 z "
        id="path9" style="stroke-width:0.60000002;fill:#001E50;fill-opacity:1" />
</svg>
