<?xml version="1.0" encoding="UTF-8" standalone="no"?>
<svg xmlns:dc="http://purl.org/dc/elements/1.1/" xmlns:cc="http://creativecommons.org/ns#" xmlns:rdf="http://www.w3.org/1999/02/22-rdf-syntax-ns#" xmlns="http://www.w3.org/2000/svg"
	 viewBox="0 0 932.79468 297.34534" height="297.34534" width="932.79468" xml:space="preserve" id="svg2" version="1.1"><metadata
     id="metadata8"><rdf:RDF><cc:Work
         rdf:about=""><dc:format>image/svg+xml</dc:format><dc:type rdf:resource="http://purl.org/dc/dcmitype/StillImage" /></cc:Work></rdf:RDF></metadata>
  <defs id="defs6"><clipPath
       id="clipPath18"
       clipPathUnits="userSpaceOnUse"><path
         id="path16"
         d="M 0,223.009 H 699.596 V 0 H 0 Z" /></clipPath></defs>
  <g transform="matrix(1.3333333,0,0,-1.3333333,0,297.34533)" id="g10"><g
       id="g12"><g
         clip-path="url(#clipPath18)"
         id="g14"><g
           transform="translate(186.7856,129.8421)"
           id="g20"><path
             id="path22"
             style="fill:#00b46e;fill-opacity:1;fill-rule:nonzero;stroke:none"
             d="M 0,0 C -0.355,0.982 -1.286,1.688 -2.39,1.688 L -2.392,1.689 H -32.716 V 1.688 c -1.409,0 -2.551,-1.142 -2.551,-2.55 0,-0.312 0.064,-0.607 0.166,-0.883 2.122,-5.113 3.293,-10.721 3.293,-16.593 0,-23.97 -19.502,-43.472 -43.473,-43.472 -23.971,0 -43.473,19.502 -43.473,43.472 0,23.971 19.502,43.473 43.473,43.473 11.105,0 21.251,-4.185 28.943,-11.062 0.505,-0.425 1.071,-0.68 1.739,-0.68 0.696,0 1.197,0.205 1.779,0.731 l -0.002,-0.002 0.001,10e-4 20.483,20.482 v 0.001 c 0.474,0.463 0.771,1.108 0.771,1.824 0,0.757 -0.336,1.429 -0.86,1.897 -13.844,12.918 -32.426,20.824 -52.854,20.824 -42.796,0 -77.489,-34.693 -77.489,-77.489 0,-42.795 34.693,-77.489 77.489,-77.489 42.796,0 77.489,34.694 77.489,77.489 C 2.208,-7.821 0,0 0,0" /></g><g
		  transform="translate(277.0596,117.9671)" id="g24"><path
             id="path26"
             style="fill:#001e50;fill-opacity:1;fill-rule:nonzero;stroke:none"
             d="m 0,0 c -1.174,0 -2.316,0.289 -3.429,0.867 -1.112,0.578 -1.837,1.048 -2.174,1.41 -0.336,0.363 -0.59,0.664 -0.763,0.907 L -9.809,-0.259 -9.42,-0.75 c 0.242,-0.311 0.635,-0.686 1.178,-1.126 0.543,-0.439 1.178,-0.876 1.902,-1.307 0.725,-0.431 1.652,-0.802 2.781,-1.113 1.131,-0.31 2.317,-0.466 3.559,-0.466 2.83,0 5.129,0.777 6.896,2.329 1.769,1.553 2.653,3.425 2.653,5.617 0,1.414 -0.319,2.622 -0.957,3.623 -0.639,1 -1.446,1.742 -2.42,2.225 -0.975,0.483 -2.019,0.919 -3.131,1.307 -1.113,0.389 -2.152,0.712 -3.119,0.971 -0.966,0.258 -1.768,0.637 -2.406,1.138 -0.639,0.5 -0.957,1.121 -0.957,1.864 0,0.707 0.332,1.324 0.996,1.85 0.664,0.525 1.565,0.789 2.704,0.789 0.845,0 1.686,-0.194 2.523,-0.582 0.837,-0.389 1.389,-0.708 1.655,-0.958 0.268,-0.25 0.471,-0.444 0.61,-0.582 l 3.441,3.442 -0.336,0.388 C 7.945,18.866 7.613,19.146 7.155,19.5 6.698,19.854 6.168,20.198 5.564,20.535 4.96,20.871 4.18,21.156 3.222,21.389 c -0.957,0.233 -1.945,0.349 -2.963,0.349 -2.572,0 -4.714,-0.75 -6.431,-2.251 -1.717,-1.501 -2.575,-3.226 -2.575,-5.175 0,-1.416 0.319,-2.627 0.958,-3.637 0.638,-1.009 1.444,-1.751 2.42,-2.226 C -4.395,7.976 -3.352,7.544 -2.238,7.155 -1.125,6.768 -0.086,6.439 0.88,6.172 1.846,5.905 2.648,5.525 3.287,5.033 3.925,4.542 4.244,3.925 4.244,3.184 4.244,2.217 3.891,1.445 3.184,0.867 2.476,0.289 1.414,0 0,0" /></g><g
		  transform="translate(295.0654,121.1507)" id="g28"><path
             id="path30"
             style="fill:#001e50;fill-opacity:1;fill-rule:nonzero;stroke:none"
             d="m 0,0 c -0.017,-5.297 2.45,-7.945 7.402,-7.945 1.432,0 2.674,0.173 3.727,0.517 v 4.762 L 10.74,-2.77 c -0.242,-0.103 -0.582,-0.198 -1.022,-0.284 -0.441,-0.087 -0.859,-0.13 -1.255,-0.13 -0.914,0 -1.674,0.302 -2.277,0.907 -0.604,0.603 -0.907,1.38 -0.907,2.329 V 13.25 h 5.306 v 4.762 H 5.279 V 26.5 H 0.518 v -5.306 c 0,-2.122 -0.879,-3.182 -2.639,-3.182 H -4.787 V 13.25 H 0 Z" /></g><g
		  transform="translate(316.9678,133.4817)" id="g32"><path
             id="path34"
             style="fill:#001e50;fill-opacity:1;fill-rule:nonzero;stroke:none"
             d="M 0,0 C 1.303,1.13 2.912,1.695 4.826,1.695 6.775,1.695 8.398,1.13 9.691,0 c 1.295,-1.13 2.097,-2.592 2.408,-4.387 H -2.627 C -2.178,-2.592 -1.303,-1.13 0,0 m 5.111,-20.276 c 1.346,0 2.653,0.194 3.92,0.583 1.269,0.387 2.3,0.81 3.094,1.267 0.793,0.457 1.543,0.984 2.251,1.579 0.708,0.595 1.169,1.018 1.384,1.268 0.217,0.25 0.376,0.444 0.479,0.582 l -3.442,3.442 -0.802,-0.983 c -0.534,-0.639 -1.444,-1.294 -2.73,-1.967 -1.286,-0.673 -2.67,-1.01 -4.154,-1.01 -2.052,0 -3.826,0.657 -5.318,1.967 -1.492,1.312 -2.377,2.864 -2.652,4.658 h 19.875 l 0.285,2.64 c 0,3.571 -1.187,6.543 -3.559,8.915 -2.373,2.373 -5.34,3.559 -8.902,3.559 -3.563,0 -6.617,-1.273 -9.162,-3.818 -2.544,-2.544 -3.817,-5.602 -3.817,-9.174 0,-3.709 1.307,-6.887 3.92,-9.536 2.615,-2.648 5.725,-3.972 9.33,-3.972" /></g><g
		  transform="translate(354.3691,139.7054)" id="g36"><path
             id="path38"
             style="fill:#001e50;fill-opacity:1;fill-rule:nonzero;stroke:none"
             d="m 0,0 h -1.319 c -0.881,0 -1.756,-0.116 -2.627,-0.35 -0.871,-0.232 -1.588,-0.491 -2.149,-0.776 -0.56,-0.284 -1.091,-0.603 -1.592,-0.957 -0.5,-0.354 -0.828,-0.608 -0.982,-0.764 l -0.337,-0.336 v 2.64 h -5.306 v -25.439 h 5.306 v 13.767 c 0,2.347 0.6,4.171 1.798,5.474 1.199,1.303 2.809,1.954 4.827,1.954 0.88,0 1.673,-0.087 2.381,-0.259 z" /></g><g
		  transform="translate(363.8877,127.4905)" id="g40"><path
             id="path42"
             style="fill:#001e50;fill-opacity:1;fill-rule:nonzero;stroke:none"
             d="m 0,0 c 0,2.347 0.6,4.171 1.799,5.474 1.199,1.302 2.808,1.954 4.826,1.954 0.881,0 1.674,-0.087 2.381,-0.259 v 5.046 H 7.687 c -0.88,0 -1.755,-0.116 -2.627,-0.35 C 4.188,11.633 3.473,11.374 2.912,11.089 2.352,10.805 1.82,10.485 1.32,10.132 0.82,9.778 0.492,9.523 0.337,9.368 L 0,9.032 v 2.64 h -5.305 v -25.44 H 0 Z" /></g><g
		  transform="translate(383.668,133.4817)" id="g44"><path
             id="path46"
             style="fill:#001e50;fill-opacity:1;fill-rule:nonzero;stroke:none"
             d="m 0,0 c 1.303,1.13 2.911,1.695 4.827,1.695 1.949,0 3.57,-0.565 4.865,-1.695 1.293,-1.13 2.096,-2.592 2.407,-4.387 H -2.626 C -2.179,-2.592 -1.302,-1.13 0,0 m 9.032,-19.693 c 1.268,0.387 2.299,0.81 3.092,1.267 0.794,0.457 1.545,0.984 2.252,1.579 0.707,0.595 1.169,1.018 1.385,1.268 0.215,0.25 0.375,0.444 0.478,0.582 l -3.441,3.442 -0.803,-0.983 c -0.535,-0.639 -1.445,-1.294 -2.73,-1.967 -1.286,-0.673 -2.67,-1.01 -4.154,-1.01 -2.053,0 -3.825,0.657 -5.318,1.967 -1.492,1.312 -2.376,2.864 -2.652,4.658 h 19.875 l 0.284,2.64 c 0,3.571 -1.186,6.543 -3.558,8.915 -2.372,2.373 -5.34,3.559 -8.903,3.559 -3.563,0 -6.615,-1.273 -9.16,-3.818 -2.545,-2.544 -3.818,-5.602 -3.818,-9.174 0,-3.709 1.307,-6.887 3.921,-9.536 2.614,-2.648 5.723,-3.972 9.329,-3.972 1.346,0 2.653,0.194 3.921,0.583" /></g><g
		  transform="translate(409.6826,150.0071)" id="g48"><path
             id="path50"
             style="fill:#001e50;fill-opacity:1;fill-rule:nonzero;stroke:none"
             d="m 0,0 c -0.914,0 -1.674,-0.302 -2.277,-0.906 -0.604,-0.604 -0.907,-1.363 -0.907,-2.278 0,-0.914 0.303,-1.672 0.907,-2.277 0.603,-0.603 1.363,-0.905 2.277,-0.905 0.914,0 1.674,0.302 2.277,0.905 0.604,0.605 0.907,1.363 0.907,2.277 0,0.915 -0.303,1.674 -0.907,2.278 C 1.674,-0.302 0.914,0 0,0" /></g><path
		  id="path52" style="fill:#001e50;fill-opacity:1;fill-rule:nonzero;stroke:none" d="m 407.017,113.723 h 5.306 v 25.439 h -5.306 z" /><g transform="translate(438.0166,120.9436)" id="g54"><path
             id="path56"
             style="fill:#001e50;fill-opacity:1;fill-rule:nonzero;stroke:none"
             d="m 0,0 c -0.518,-0.639 -1.367,-1.294 -2.549,-1.967 -1.181,-0.673 -2.445,-1.01 -3.791,-1.01 -2.156,0 -4.024,0.82 -5.602,2.459 -1.579,1.639 -2.369,3.645 -2.369,6.017 0,2.372 0.79,4.378 2.369,6.017 1.578,1.639 3.446,2.459 5.602,2.459 1.346,0 2.61,-0.346 3.791,-1.036 1.182,-0.69 1.949,-1.238 2.304,-1.643 0.353,-0.405 0.616,-0.746 0.789,-1.023 l 3.442,3.443 -1.113,1.216 c -0.742,0.845 -1.967,1.695 -3.675,2.548 -1.708,0.855 -3.553,1.282 -5.538,1.282 -3.571,0 -6.672,-1.32 -9.303,-3.959 -2.631,-2.64 -3.947,-5.741 -3.947,-9.304 0,-3.562 1.316,-6.659 3.946,-9.291 2.632,-2.631 5.733,-3.946 9.304,-3.946 1.225,0 2.442,0.194 3.649,0.582 1.208,0.388 2.191,0.811 2.951,1.268 0.759,0.457 1.483,0.984 2.174,1.578 0.689,0.596 1.138,1.019 1.345,1.269 0.207,0.25 0.362,0.444 0.465,0.582 L 0.803,0.983 Z" /></g><g
		  transform="translate(453.0732,127.4905)" id="g58"><path
             id="path60"
             style="fill:#001e50;fill-opacity:1;fill-rule:nonzero;stroke:none"
             d="m 0,0 c 0,2.347 0.6,4.171 1.799,5.474 1.199,1.302 2.808,1.954 4.826,1.954 1.743,0 3.196,-0.605 4.361,-1.812 1.164,-1.208 1.746,-2.726 1.746,-4.554 v -14.83 h 5.306 v 14.83 c 0,3.398 -0.958,6.107 -2.872,8.126 -1.916,2.018 -4.408,3.027 -7.479,3.027 -0.88,0 -1.751,-0.116 -2.615,-0.35 C 4.21,11.633 3.494,11.374 2.925,11.089 2.355,10.805 1.825,10.485 1.333,10.132 0.842,9.778 0.514,9.523 0.35,9.368 0.186,9.213 0.069,9.101 0,9.032 V 23.343 H -5.279 V -13.768 H 0 Z" /></g><path
		  id="path62" style="fill:#001e50;fill-opacity:1;fill-rule:nonzero;stroke:none" d="m 478.765,113.723 h 5.305 v 25.439 h -5.305 z" /><g transform="translate(481.4297,143.6409)" id="g64"><path
             id="path66"
             style="fill:#001e50;fill-opacity:1;fill-rule:nonzero;stroke:none"
             d="M 0,0 C 0.915,0 1.673,0.302 2.277,0.905 2.882,1.51 3.183,2.269 3.183,3.183 3.183,4.098 2.882,4.856 2.277,5.46 1.673,6.064 0.915,6.366 0,6.366 -0.915,6.366 -1.673,6.064 -2.277,5.46 -2.882,4.856 -3.183,4.098 -3.183,3.183 -3.183,2.269 -2.882,1.51 -2.277,0.905 -1.673,0.302 -0.915,0 0,0" /></g><g
		  transform="translate(505.6104,126.9993)" id="g68"><path
             id="path70"
             style="fill:#001e50;fill-opacity:1;fill-rule:nonzero;stroke:none"
             d="m 0,0 c -0.975,0.482 -2.019,0.919 -3.132,1.307 -1.112,0.388 -2.151,0.712 -3.118,0.97 -0.967,0.259 -1.769,0.638 -2.406,1.139 -0.639,0.5 -0.958,1.121 -0.958,1.863 0,0.707 0.332,1.325 0.996,1.851 0.665,0.525 1.565,0.789 2.704,0.789 0.846,0 1.687,-0.194 2.523,-0.582 0.837,-0.389 1.389,-0.708 1.657,-0.958 0.267,-0.25 0.47,-0.444 0.608,-0.582 L 2.316,9.238 1.979,9.627 c -0.207,0.207 -0.539,0.487 -0.996,0.841 -0.458,0.353 -0.987,0.698 -1.591,1.035 -0.605,0.336 -1.385,0.621 -2.342,0.853 -0.958,0.234 -1.946,0.35 -2.964,0.35 -2.57,0 -4.714,-0.75 -6.43,-2.251 -1.717,-1.501 -2.576,-3.226 -2.576,-5.176 0,-1.415 0.32,-2.627 0.958,-3.636 0.638,-1.009 1.444,-1.751 2.42,-2.226 0.975,-0.474 2.019,-0.905 3.132,-1.294 1.112,-0.388 2.151,-0.716 3.117,-0.983 0.967,-0.267 1.77,-0.647 2.407,-1.139 0.638,-0.491 0.958,-1.108 0.958,-1.85 0,-0.966 -0.353,-1.738 -1.061,-2.316 -0.708,-0.578 -1.769,-0.867 -3.183,-0.867 -1.174,0 -2.316,0.289 -3.43,0.867 -1.112,0.578 -1.836,1.048 -2.173,1.41 -0.336,0.362 -0.591,0.664 -0.764,0.906 l -3.441,-3.442 0.388,-0.491 c 0.241,-0.311 0.634,-0.686 1.178,-1.126 0.543,-0.44 1.177,-0.876 1.901,-1.307 0.725,-0.431 1.652,-0.803 2.783,-1.113 1.129,-0.311 2.316,-0.466 3.558,-0.466 2.829,0 5.128,0.776 6.897,2.329 1.767,1.553 2.652,3.425 2.652,5.616 0,1.414 -0.319,2.622 -0.957,3.623 C 1.781,-1.226 0.975,-0.483 0,0" /></g><g
		  transform="translate(532.79,120.9436)" id="g72"><path
             id="path74"
             style="fill:#001e50;fill-opacity:1;fill-rule:nonzero;stroke:none"
             d="m 0,0 c -0.518,-0.639 -1.367,-1.294 -2.549,-1.967 -1.181,-0.673 -2.445,-1.01 -3.791,-1.01 -2.156,0 -4.024,0.82 -5.602,2.459 -1.579,1.639 -2.369,3.645 -2.369,6.017 0,2.372 0.79,4.378 2.369,6.017 1.578,1.639 3.446,2.459 5.602,2.459 1.346,0 2.61,-0.346 3.791,-1.036 1.182,-0.69 1.949,-1.238 2.304,-1.643 0.353,-0.405 0.616,-0.746 0.789,-1.023 l 3.442,3.443 -1.113,1.216 c -0.742,0.845 -1.967,1.695 -3.675,2.548 -1.708,0.855 -3.553,1.282 -5.538,1.282 -3.571,0 -6.672,-1.32 -9.303,-3.959 -2.631,-2.64 -3.947,-5.741 -3.947,-9.304 0,-3.562 1.316,-6.659 3.946,-9.291 2.632,-2.631 5.733,-3.946 9.304,-3.946 1.225,0 2.442,0.194 3.649,0.582 1.208,0.388 2.191,0.811 2.951,1.268 0.759,0.457 1.483,0.984 2.174,1.578 0.689,0.596 1.138,1.019 1.345,1.269 0.207,0.25 0.362,0.444 0.465,0.582 L 0.803,0.983 Z" /></g><g
		  transform="translate(547.8467,127.4905)" id="g76"><path
             id="path78"
             style="fill:#001e50;fill-opacity:1;fill-rule:nonzero;stroke:none"
             d="m 0,0 c 0,2.347 0.6,4.171 1.799,5.474 1.199,1.302 2.808,1.954 4.826,1.954 1.743,0 3.196,-0.605 4.361,-1.812 1.164,-1.208 1.746,-2.726 1.746,-4.554 v -14.83 h 5.306 v 14.83 c 0,3.398 -0.958,6.107 -2.872,8.126 -1.916,2.018 -4.408,3.027 -7.479,3.027 -0.88,0 -1.751,-0.116 -2.615,-0.35 C 4.21,11.633 3.494,11.374 2.925,11.089 2.355,10.805 1.825,10.485 1.333,10.132 0.842,9.778 0.514,9.523 0.35,9.368 0.186,9.213 0.069,9.101 0,9.032 V 23.343 H -5.279 V -13.768 H 0 Z" /></g><g
		  transform="translate(579.8389,133.4817)" id="g80"><path
             id="path82"
             style="fill:#001e50;fill-opacity:1;fill-rule:nonzero;stroke:none"
             d="M 0,0 C 1.303,1.13 2.912,1.695 4.826,1.695 6.775,1.695 8.398,1.13 9.691,0 c 1.295,-1.13 2.097,-2.592 2.408,-4.387 H -2.627 C -2.178,-2.592 -1.303,-1.13 0,0 m 15.76,-15.579 c 0.217,0.25 0.376,0.444 0.479,0.582 l -3.442,3.442 -0.802,-0.983 c -0.534,-0.639 -1.444,-1.294 -2.73,-1.967 -1.286,-0.673 -2.67,-1.01 -4.154,-1.01 -2.052,0 -3.826,0.657 -5.318,1.967 -1.492,1.312 -2.377,2.864 -2.652,4.658 h 19.875 l 0.285,2.64 c 0,3.571 -1.187,6.543 -3.559,8.915 -2.373,2.373 -5.34,3.559 -8.902,3.559 -3.563,0 -6.617,-1.273 -9.162,-3.818 -2.544,-2.544 -3.817,-5.602 -3.817,-9.174 0,-3.709 1.307,-6.887 3.92,-9.536 2.615,-2.648 5.725,-3.972 9.33,-3.972 1.346,0 2.653,0.194 3.92,0.583 1.269,0.387 2.3,0.81 3.094,1.267 0.793,0.457 1.543,0.984 2.251,1.579 0.708,0.595 1.169,1.018 1.384,1.268" /></g><g
		  transform="translate(271.9893,77.3543)" id="g84"><path
             id="path86"
             style="fill:#001e50;fill-opacity:1;fill-rule:nonzero;stroke:none"
             d="M 0,0 C 0.432,1.415 1.178,2.563 2.238,3.442 3.3,4.322 4.59,4.762 6.107,4.762 7.625,4.762 8.906,4.313 9.95,3.416 10.994,2.52 11.654,1.381 11.93,0 Z m 6.107,10.869 c -3.709,0 -6.892,-1.324 -9.548,-3.973 -2.658,-2.647 -3.987,-5.826 -3.987,-9.536 0,-3.709 1.346,-6.887 4.037,-9.536 2.692,-2.648 5.944,-3.972 9.757,-3.972 1.346,0 2.654,0.155 3.921,0.465 1.268,0.311 2.299,0.669 3.092,1.075 0.794,0.405 1.545,0.867 2.252,1.384 0.707,0.518 1.169,0.884 1.385,1.1 l 0.478,0.478 -3.701,4.762 -0.75,-0.802 c -0.466,-0.535 -1.272,-1.065 -2.42,-1.591 -1.146,-0.527 -2.394,-0.789 -3.739,-0.789 -1.863,0 -3.407,0.487 -4.632,1.462 C 1.026,-7.63 0.275,-6.435 0,-5.021 h 18.814 l 0.258,2.899 c 0,3.71 -1.232,6.802 -3.7,9.277 -2.468,2.477 -5.556,3.714 -9.265,3.714" /></g><g
		  transform="translate(310.9561,75.867)" id="g88"><path
             id="path90"
             style="fill:#001e50;fill-opacity:1;fill-rule:nonzero;stroke:none"
             d="m 0,0 c -1.19,0.491 -2.367,0.914 -3.532,1.268 -1.165,0.353 -2.153,0.754 -2.964,1.203 -0.811,0.449 -1.216,1.009 -1.216,1.682 0,0.552 0.284,1.039 0.855,1.462 0.568,0.423 1.345,0.634 2.328,0.634 0.777,0 1.536,-0.194 2.277,-0.582 0.742,-0.389 1.231,-0.703 1.463,-0.944 0.232,-0.243 0.4,-0.432 0.504,-0.57 L 3.416,8.371 2.51,9.381 c -0.586,0.638 -1.635,1.294 -3.144,1.967 -1.51,0.673 -3.161,1.008 -4.956,1.008 -2.83,0 -5.215,-0.844 -7.155,-2.536 -1.941,-1.69 -2.911,-3.58 -2.911,-5.667 0,-1.604 0.404,-2.933 1.216,-3.985 0.811,-1.053 1.798,-1.829 2.963,-2.329 1.164,-0.501 2.342,-0.928 3.532,-1.281 1.191,-0.354 2.191,-0.768 3.002,-1.243 0.811,-0.474 1.216,-1.065 1.216,-1.772 0,-0.708 -0.289,-1.281 -0.867,-1.721 -0.578,-0.44 -1.435,-0.66 -2.574,-0.66 -1.035,0 -2.036,0.272 -3.002,0.816 -0.967,0.543 -1.601,0.974 -1.902,1.293 -0.303,0.319 -0.522,0.583 -0.66,0.79 l -3.986,-3.96 0.363,-0.543 c 0.258,-0.311 0.677,-0.695 1.255,-1.152 0.578,-0.458 1.254,-0.919 2.032,-1.385 0.775,-0.465 1.785,-0.863 3.027,-1.19 1.242,-0.328 2.553,-0.492 3.934,-0.492 3.209,0 5.732,0.785 7.57,2.355 1.837,1.57 2.756,3.52 2.756,5.849 0,1.621 -0.406,2.98 -1.217,4.076 C 2.191,-1.286 1.19,-0.492 0,0" /></g><g
		  transform="translate(337.6587,73.9129)" id="g92"><path
             id="path94"
             style="fill:#001e50;fill-opacity:1;fill-rule:nonzero;stroke:none"
             d="m 0,0 c 0,-1.95 -0.479,-3.451 -1.437,-4.503 -0.958,-1.053 -2.247,-1.579 -3.869,-1.579 -1.449,0 -2.652,0.475 -3.61,1.424 -0.957,0.948 -1.436,2.147 -1.436,3.596 v 14.855 h -7.142 V -1.76 c 0,-3.312 0.935,-5.966 2.807,-7.958 1.873,-1.993 4.292,-2.989 7.259,-2.989 1.414,0 2.765,0.289 4.051,0.867 1.285,0.578 2.117,1.044 2.496,1.398 0.38,0.353 0.674,0.651 0.881,0.892 v -2.639 H 7.143 V 13.793 H 0 Z" /></g><g
		  transform="translate(366.2227,88.2234)" id="g96"><path
             id="path98"
             style="fill:#001e50;fill-opacity:1;fill-rule:nonzero;stroke:none"
             d="m 0,0 c -1.415,0 -2.766,-0.345 -4.051,-1.035 -1.285,-0.69 -2.117,-1.237 -2.497,-1.644 -0.38,-0.405 -0.673,-0.746 -0.88,-1.021 v 3.182 H -14.57 V -26.5 h 7.142 v 13.509 c 0,1.95 0.479,3.455 1.437,4.515 0.957,1.062 2.247,1.592 3.868,1.592 1.484,0 2.696,-0.487 3.637,-1.462 0.939,-0.974 1.41,-2.256 1.41,-3.842 V -26.5 h 7.142 v 15.113 c 0,3.486 -0.935,6.254 -2.808,8.308 C 5.387,-1.026 2.967,0 0,0" /></g><g
		  transform="translate(399.5742,69.5652)" id="g100"><path
             id="path102"
             style="fill:#001e50;fill-opacity:1;fill-rule:nonzero;stroke:none"
             d="m 0,0 c -1.242,-1.346 -2.743,-2.019 -4.503,-2.019 -1.76,0 -3.261,0.673 -4.503,2.019 -1.242,1.346 -1.863,3.063 -1.863,5.149 0,2.088 0.621,3.8 1.863,5.137 1.242,1.338 2.743,2.006 4.503,2.006 1.76,0 3.261,-0.668 4.503,-2.006 C 1.242,8.949 1.863,7.237 1.863,5.149 1.863,3.063 1.242,1.346 0,0 m 1.863,14.958 -0.802,0.957 c -0.535,0.587 -1.445,1.19 -2.731,1.812 -1.285,0.621 -2.669,0.931 -4.152,0.931 -3.366,0 -6.285,-1.306 -8.761,-3.921 -2.476,-2.613 -3.714,-5.809 -3.714,-9.588 0,-3.778 1.238,-6.974 3.714,-9.587 2.476,-2.615 5.395,-3.921 8.761,-3.921 0.948,0 1.863,0.13 2.742,0.388 0.881,0.259 1.596,0.556 2.148,0.893 0.553,0.336 1.066,0.716 1.539,1.139 0.475,0.422 0.786,0.715 0.932,0.879 0.148,0.164 0.256,0.298 0.324,0.402 V -7.842 H 9.006 V 29.269 H 1.863 Z" /></g><g
		  transform="translate(429.9766,88.2234)" id="g104"><path
             id="path106"
             style="fill:#001e50;fill-opacity:1;fill-rule:nonzero;stroke:none"
             d="M 0,0 C -1.414,0 -2.764,-0.345 -4.05,-1.035 -5.335,-1.725 -6.163,-2.272 -6.534,-2.679 -6.904,-3.084 -7.193,-3.425 -7.4,-3.7 v 14.31 h -7.169 V -26.5 H -7.4 v 13.509 c 0,1.95 0.474,3.455 1.422,4.515 0.949,1.062 2.235,1.592 3.857,1.592 1.483,0 2.695,-0.487 3.636,-1.462 0.94,-0.974 1.41,-2.256 1.41,-3.842 V -26.5 h 7.142 v 15.113 c 0,3.486 -0.936,6.254 -2.807,8.308 C 5.388,-1.026 2.968,0 0,0" /></g><g
		  transform="translate(452.459,77.3543)" id="g108"><path
             id="path110"
             style="fill:#001e50;fill-opacity:1;fill-rule:nonzero;stroke:none"
             d="m 0,0 c 0.431,1.415 1.178,2.563 2.238,3.442 1.062,0.88 2.351,1.32 3.869,1.32 1.519,0 2.8,-0.449 3.843,-1.346 C 10.994,2.52 11.654,1.381 11.931,0 Z m 6.107,10.869 c -3.71,0 -6.892,-1.324 -9.549,-3.973 -2.657,-2.647 -3.985,-5.826 -3.985,-9.536 0,-3.709 1.346,-6.887 4.037,-9.536 2.692,-2.648 5.944,-3.972 9.756,-3.972 1.346,0 2.653,0.155 3.921,0.465 1.269,0.311 2.299,0.669 3.093,1.075 0.793,0.405 1.543,0.867 2.251,1.384 0.708,0.518 1.169,0.884 1.385,1.1 l 0.478,0.478 -3.7,4.762 -0.751,-0.802 c -0.466,-0.535 -1.272,-1.065 -2.42,-1.591 -1.147,-0.527 -2.394,-0.789 -3.739,-0.789 -1.863,0 -3.407,0.487 -4.633,1.462 C 1.026,-7.63 0.276,-6.435 0,-5.021 h 18.813 l 0.26,2.899 c 0,3.71 -1.234,6.802 -3.701,9.277 -2.467,2.477 -5.555,3.714 -9.265,3.714" /></g><path
		  id="path112" style="fill:#001e50;fill-opacity:1;fill-rule:nonzero;stroke:none" d="m 476.806,61.723 h 7.168 v 25.982 h -7.168 z" /><g transform="translate(480.1553,99.0369)" id="g114"><path
             id="path116"
             style="fill:#001e50;fill-opacity:1;fill-rule:nonzero;stroke:none"
             d="m 0,0 c -1.19,0 -2.148,-0.362 -2.873,-1.087 -0.725,-0.725 -1.086,-1.686 -1.086,-2.886 0,-1.198 0.357,-2.16 1.073,-2.884 0.716,-0.725 1.679,-1.087 2.886,-1.087 1.311,0 2.346,0.362 3.105,1.087 0.76,0.724 1.139,1.686 1.139,2.884 0,1.2 -0.379,2.161 -1.139,2.886 C 2.346,-0.362 1.311,0 0,0" /></g><g
		  transform="translate(505.1787,67.6883)" id="g118"><path
             id="path120"
             style="fill:#001e50;fill-opacity:1;fill-rule:nonzero;stroke:none"
             d="m 0,0 c -0.44,-0.095 -0.894,-0.142 -1.359,-0.142 -0.914,0 -1.669,0.285 -2.264,0.854 -0.596,0.569 -0.894,1.26 -0.894,2.07 v 10.326 h 5.28 v 6.367 h -5.28 v 8.203 h -6.366 v -4.762 c 0,-1.018 -0.285,-1.846 -0.853,-2.484 -0.571,-0.638 -1.26,-0.957 -2.071,-0.957 h -2.38 v -6.367 h 4.501 V 2.523 c 0,-6.003 2.735,-9.005 8.205,-9.005 1.776,-0.017 3.373,0.242 4.788,0.776 V 0.401 L 0.996,0.298 C 0.771,0.194 0.439,0.096 0,0" /></g><g
		  transform="translate(526.9473,75.867)" id="g122"><path
             id="path124"
             style="fill:#001e50;fill-opacity:1;fill-rule:nonzero;stroke:none"
             d="m 0,0 c -1.19,0.491 -2.367,0.914 -3.532,1.268 -1.165,0.353 -2.153,0.754 -2.964,1.203 -0.811,0.449 -1.216,1.009 -1.216,1.682 0,0.552 0.284,1.039 0.855,1.462 0.568,0.423 1.345,0.634 2.328,0.634 0.777,0 1.536,-0.194 2.277,-0.582 0.742,-0.389 1.231,-0.703 1.463,-0.944 0.232,-0.243 0.4,-0.432 0.504,-0.57 L 3.416,8.371 2.51,9.381 c -0.586,0.638 -1.635,1.294 -3.144,1.967 -1.51,0.673 -3.161,1.008 -4.956,1.008 -2.83,0 -5.215,-0.844 -7.155,-2.536 -1.941,-1.69 -2.911,-3.58 -2.911,-5.667 0,-1.604 0.404,-2.933 1.216,-3.985 0.811,-1.053 1.798,-1.829 2.963,-2.329 1.164,-0.501 2.342,-0.928 3.532,-1.281 1.191,-0.354 2.191,-0.768 3.002,-1.243 0.811,-0.474 1.216,-1.065 1.216,-1.772 0,-0.708 -0.289,-1.281 -0.867,-1.721 -0.578,-0.44 -1.435,-0.66 -2.574,-0.66 -1.035,0 -2.036,0.272 -3.002,0.816 -0.967,0.543 -1.601,0.974 -1.902,1.293 -0.303,0.319 -0.522,0.583 -0.66,0.79 l -3.986,-3.96 0.363,-0.543 c 0.258,-0.311 0.677,-0.695 1.255,-1.152 0.578,-0.458 1.254,-0.919 2.032,-1.385 0.775,-0.465 1.785,-0.863 3.027,-1.19 1.242,-0.328 2.553,-0.492 3.934,-0.492 3.209,0 5.732,0.785 7.57,2.355 1.837,1.57 2.756,3.52 2.756,5.849 0,1.621 -0.406,2.98 -1.217,4.076 C 2.191,-1.286 1.19,-0.492 0,0" /></g><g
		  transform="translate(560.4834,87.7058)" id="g126"><path
             id="path128"
             style="fill:#001e50;fill-opacity:1;fill-rule:nonzero;stroke:none"
             d="m 0,0 h -8.203 l -9.265,-10.61 v 21.738 h -7.169 v -37.11 h 7.169 v 6.366 l 3.157,3.701 6.911,-10.067 h 7.944 l -10.325,14.829 z" /></g><g transform="translate(579.0566,72.8513)"
																																						   id="g130"><path
             id="path132"
             style="fill:#001e50;fill-opacity:1;fill-rule:nonzero;stroke:none"
             d="m 0,0 c 0,-1.828 -0.479,-3.256 -1.437,-4.283 -0.957,-1.027 -2.247,-1.539 -3.869,-1.539 -2.295,0 -3.441,0.88 -3.441,2.639 0,1.639 0.975,2.614 2.924,2.924 L 0,0.803 Z m -3.985,15.372 c -1.26,0 -2.494,-0.185 -3.702,-0.556 -1.207,-0.371 -2.181,-0.776 -2.923,-1.216 -0.743,-0.44 -1.428,-0.945 -2.058,-1.514 -0.63,-0.569 -1.035,-0.971 -1.216,-1.203 -0.181,-0.234 -0.324,-0.419 -0.428,-0.557 l 3.96,-3.96 0.595,0.621 c 0.398,0.466 1.078,0.919 2.045,1.36 0.966,0.439 2.035,0.659 3.209,0.659 1.414,0 2.519,-0.345 3.313,-1.035 C -0.397,7.281 0,6.393 0,5.306 L -8.229,3.83 c -2.399,-0.431 -4.28,-1.354 -5.642,-2.768 -1.363,-1.416 -2.044,-3.184 -2.044,-5.306 0,-2.053 0.811,-3.8 2.432,-5.24 1.622,-1.441 3.726,-2.162 6.314,-2.162 1.346,0 2.641,0.29 3.883,0.868 1.242,0.578 2.049,1.044 2.419,1.397 0.371,0.354 0.66,0.652 0.867,0.893 v -2.64 H 7.143 V 5.047 c 0,2.967 -1.036,5.43 -3.106,7.389 -2.07,1.958 -4.745,2.936 -8.022,2.936" /></g><g
		  transform="translate(607.3896,75.867)" id="g134"><path
             id="path136"
             style="fill:#001e50;fill-opacity:1;fill-rule:nonzero;stroke:none"
             d="m 0,0 c -1.191,0.491 -2.368,0.914 -3.533,1.268 -1.164,0.353 -2.153,0.754 -2.963,1.203 -0.811,0.449 -1.217,1.009 -1.217,1.682 0,0.552 0.285,1.039 0.855,1.462 0.569,0.423 1.345,0.634 2.329,0.634 0.776,0 1.535,-0.194 2.277,-0.582 0.742,-0.389 1.23,-0.703 1.463,-0.944 0.232,-0.243 0.4,-0.432 0.504,-0.57 L 3.416,8.371 2.51,9.381 c -0.586,0.638 -1.635,1.294 -3.145,1.967 -1.51,0.673 -3.161,1.008 -4.955,1.008 -2.83,0 -5.215,-0.844 -7.156,-2.536 -1.941,-1.69 -2.911,-3.58 -2.911,-5.667 0,-1.604 0.405,-2.933 1.216,-3.985 0.811,-1.053 1.798,-1.829 2.963,-2.329 1.165,-0.501 2.342,-0.928 3.533,-1.281 1.19,-0.354 2.191,-0.768 3.002,-1.243 0.81,-0.474 1.216,-1.065 1.216,-1.772 0,-0.708 -0.289,-1.281 -0.867,-1.721 -0.578,-0.44 -1.436,-0.66 -2.575,-0.66 -1.035,0 -2.036,0.272 -3.002,0.816 -0.966,0.543 -1.6,0.974 -1.901,1.293 -0.303,0.319 -0.523,0.583 -0.66,0.79 l -3.987,-3.96 0.364,-0.543 c 0.257,-0.311 0.676,-0.695 1.254,-1.152 0.578,-0.458 1.255,-0.919 2.032,-1.385 0.776,-0.465 1.786,-0.863 3.028,-1.19 1.242,-0.328 2.553,-0.492 3.934,-0.492 3.209,0 5.732,0.785 7.569,2.355 1.837,1.57 2.756,3.52 2.756,5.849 0,1.621 -0.405,2.98 -1.216,4.076 C 2.19,-1.286 1.189,-0.492 0,0" /></g><g
		  transform="translate(631.4766,75.867)" id="g138"><path
             id="path140"
             style="fill:#001e50;fill-opacity:1;fill-rule:nonzero;stroke:none"
             d="m 0,0 c -1.19,0.491 -2.368,0.914 -3.532,1.268 -1.164,0.353 -2.153,0.754 -2.963,1.203 -0.812,0.449 -1.217,1.009 -1.217,1.682 0,0.552 0.285,1.039 0.854,1.462 0.57,0.423 1.345,0.634 2.33,0.634 0.775,0 1.535,-0.194 2.277,-0.582 0.741,-0.389 1.229,-0.703 1.462,-0.944 0.233,-0.243 0.401,-0.432 0.505,-0.57 l 3.7,4.218 -0.905,1.01 c -0.587,0.638 -1.635,1.294 -3.145,1.967 -1.51,0.673 -3.162,1.008 -4.956,1.008 -2.829,0 -5.214,-0.844 -7.155,-2.536 -1.942,-1.69 -2.912,-3.58 -2.912,-5.667 0,-1.604 0.406,-2.933 1.217,-3.985 0.81,-1.053 1.798,-1.829 2.962,-2.329 1.165,-0.501 2.342,-0.928 3.534,-1.281 1.189,-0.354 2.19,-0.768 3.002,-1.243 0.81,-0.474 1.215,-1.065 1.215,-1.772 0,-0.708 -0.289,-1.281 -0.866,-1.721 -0.578,-0.44 -1.437,-0.66 -2.576,-0.66 -1.035,0 -2.035,0.272 -3.002,0.816 -0.966,0.543 -1.6,0.974 -1.901,1.293 -0.302,0.319 -0.523,0.583 -0.66,0.79 l -3.986,-3.96 0.363,-0.543 c 0.258,-0.311 0.676,-0.695 1.254,-1.152 0.579,-0.458 1.256,-0.919 2.032,-1.385 0.777,-0.465 1.786,-0.863 3.028,-1.19 1.242,-0.328 2.554,-0.492 3.934,-0.492 3.209,0 5.732,0.785 7.569,2.355 1.838,1.57 2.756,3.52 2.756,5.849 0,1.621 -0.405,2.98 -1.216,4.076 C 2.19,-1.286 1.19,-0.492 0,0" /></g><g
		  transform="translate(646.5078,77.3543)" id="g142"><path
             id="path144"
             style="fill:#001e50;fill-opacity:1;fill-rule:nonzero;stroke:none"
             d="m 0,0 c 0.431,1.415 1.178,2.563 2.238,3.442 1.062,0.88 2.351,1.32 3.869,1.32 1.519,0 2.8,-0.449 3.843,-1.346 C 10.994,2.52 11.654,1.381 11.931,0 Z m 19.073,-2.122 c 0,3.71 -1.234,6.802 -3.701,9.277 -2.467,2.477 -5.555,3.714 -9.265,3.714 -3.71,0 -6.892,-1.324 -9.549,-3.973 -2.657,-2.647 -3.985,-5.826 -3.985,-9.536 0,-3.709 1.346,-6.887 4.037,-9.536 2.692,-2.648 5.944,-3.972 9.756,-3.972 1.346,0 2.653,0.155 3.921,0.465 1.269,0.311 2.299,0.669 3.093,1.075 0.793,0.405 1.543,0.867 2.251,1.384 0.708,0.518 1.169,0.884 1.385,1.1 l 0.478,0.478 -3.7,4.762 -0.751,-0.802 c -0.466,-0.535 -1.272,-1.065 -2.42,-1.591 -1.147,-0.527 -2.394,-0.789 -3.739,-0.789 -1.863,0 -3.407,0.487 -4.633,1.462 C 1.026,-7.63 0.276,-6.435 0,-5.021 h 18.813 z" /></g><g
		  transform="translate(244.7471,76.0349)" id="g146"><path
             id="path148"
             style="fill:#001e50;fill-opacity:1;fill-rule:nonzero;stroke:none"
             d="M 0,0 H 6.625 V -5.047 L 5.823,-5.72 C 5.271,-6.22 4.313,-6.716 2.951,-7.208 1.588,-7.699 0.078,-7.945 -1.578,-7.945 c -3.468,0 -6.366,1.165 -8.695,3.494 -2.33,2.329 -3.495,5.227 -3.495,8.695 0,3.468 1.165,6.366 3.495,8.695 2.329,2.33 5.227,3.494 8.695,3.494 1.26,0 2.493,-0.195 3.701,-0.582 1.207,-0.389 2.182,-0.811 2.924,-1.269 0.742,-0.457 1.428,-0.987 2.057,-1.591 0.04,-0.038 0.07,-0.069 0.108,-0.105 l 5.06,5.06 c -0.277,0.263 -0.587,0.54 -0.95,0.842 -0.871,0.725 -1.871,1.449 -3.002,2.174 -1.13,0.725 -2.574,1.341 -4.334,1.85 -1.759,0.509 -3.615,0.763 -5.564,0.763 -5.658,0 -10.434,-1.888 -14.324,-5.667 -3.891,-3.778 -5.836,-8.333 -5.836,-13.664 0,-5.331 1.945,-9.89 5.836,-13.678 3.89,-3.786 8.666,-5.679 14.324,-5.679 1.967,0 3.877,0.259 5.732,0.776 1.855,0.518 3.356,1.091 4.503,1.721 1.148,0.63 2.234,1.354 3.261,2.174 1.026,0.819 1.69,1.397 1.992,1.733 0.303,0.337 0.522,0.592 0.66,0.764 V 5.822 H 0 Z" /></g><g
		  transform="translate(237.5918,155.595)" id="g150"><path
             id="path152"
             style="fill:#001e50;fill-opacity:1;fill-rule:nonzero;stroke:none"
             d="M 0,0 C 0.923,0 1.683,0.302 2.277,0.906 2.873,1.51 3.171,2.269 3.171,3.184 3.171,4.098 2.873,4.856 2.277,5.461 1.683,6.064 0.923,6.366 0,6.366 -0.923,6.366 -1.682,6.064 -2.277,5.461 -2.872,4.856 -3.17,4.098 -3.17,3.184 -3.17,2.269 -2.872,1.51 -2.277,0.906 -1.682,0.302 -0.923,0 0,0" /></g><g
		  transform="translate(255.2114,139.0701)" id="g154"><path
             id="path156"
             style="fill:#001e50;fill-opacity:1;fill-rule:nonzero;stroke:none"
             d="m 0,0 c 1.143,-2.012 1.725,-4.273 1.725,-6.792 0,-3.847 -1.333,-7.108 -3.998,-9.782 -2.666,-2.675 -5.927,-4.011 -9.782,-4.011 -3.857,0 -7.117,1.336 -9.782,4.011 -2.666,2.674 -3.998,5.935 -3.998,9.782 0,3.847 1.332,7.104 3.998,9.769 2.665,2.666 5.925,3.999 9.782,3.999 3.854,0 7.114,-1.332 9.779,-3.996 1.36,1.359 2.713,2.712 3.962,3.96 -3.724,3.554 -8.301,5.341 -13.742,5.341 -5.546,0 -10.199,-1.846 -13.961,-5.538 -3.762,-3.692 -5.642,-8.203 -5.642,-13.535 0,-5.331 1.88,-9.842 5.642,-13.535 3.762,-3.691 8.415,-5.538 13.961,-5.538 5.547,0 10.201,1.847 13.963,5.538 3.76,3.693 5.64,8.204 5.64,13.535 0,2.438 -0.413,4.697 -1.199,6.792 z" /></g><g
		  transform="translate(248.7197,155.595)" id="g158"><path
             id="path160"
             style="fill:#001e50;fill-opacity:1;fill-rule:nonzero;stroke:none"
             d="M 0,0 C 0.924,0 1.687,0.302 2.291,0.906 2.895,1.51 3.196,2.269 3.196,3.184 3.196,4.098 2.895,4.856 2.291,5.461 1.687,6.064 0.924,6.366 0,6.366 -0.923,6.366 -1.682,6.064 -2.277,5.461 -2.872,4.856 -3.17,4.098 -3.17,3.184 -3.17,2.269 -2.872,1.51 -2.277,0.906 -1.682,0.302 -0.923,0 0,0" /></g></g></g></g></svg>