<?xml version="1.0" encoding="UTF-8" standalone="no"?>
<svg xmlns:dc="http://purl.org/dc/elements/1.1/" xmlns:cc="http://creativecommons.org/ns#" xmlns:rdf="http://www.w3.org/1999/02/22-rdf-syntax-ns#" xmlns="http://www.w3.org/2000/svg"
	 viewBox="0 0 643.90668 297.34534" height="297.34534" width="643.90668" xml:space="preserve" id="svg2" version="1.1"><metadata
     id="metadata8"><rdf:RDF><cc:Work
         rdf:about=""><dc:format>image/svg+xml</dc:format><dc:type rdf:resource="http://purl.org/dc/dcmitype/StillImage" /></cc:Work></rdf:RDF></metadata>
  <defs id="defs6"><clipPath
       id="clipPath22"
       clipPathUnits="userSpaceOnUse"><path
         id="path20"
         d="M 0,223.009 H 482.93 V 0 H 0 Z" /></clipPath></defs>
  <g transform="matrix(1.3333333,0,0,-1.3333333,0,297.34533)" id="g10"><g
       transform="translate(403.3506,105.4422)"
       id="g12"><path
         id="path14"
         style="fill:#001e50;fill-opacity:1;fill-rule:nonzero;stroke:none"
         d="M 0,0 26.666,29.602 H 43.621 L 18.424,1.467 45.563,-38.318 H 28.607 L 8.715,-9.236 0,-18.898 v -19.42 h -14.588 v 67.92 l 14.588,0 z" /></g>
	<g id="g16"><g
         clip-path="url(#clipPath22)"
         id="g18"><g
           transform="translate(249.1592,142.7644)"
           id="g24"><path
             id="path26"
             style="fill:#001e50;fill-opacity:1;fill-rule:nonzero;stroke:none"
             d="M 0,0 C 1.941,0 3.639,0.732 5.092,2.201 6.544,3.67 7.27,5.367 7.27,7.293 7.27,9.219 6.544,10.916 5.092,12.385 3.639,13.854 1.941,14.588 0,14.588 c -1.942,0 -3.64,-0.734 -5.092,-2.203 -1.452,-1.469 -2.179,-3.166 -2.179,-5.092 0,-1.926 0.727,-3.623 2.179,-5.092 C -3.64,0.732 -1.942,0 0,0" /></g><g
			transform="translate(270.4727,142.7644)" id="g28"><path
             id="path30"
             style="fill:#001e50;fill-opacity:1;fill-rule:nonzero;stroke:none"
             d="m 0,0 c 1.941,0 3.646,0.732 5.115,2.201 1.468,1.469 2.202,3.166 2.202,5.092 0,1.926 -0.734,3.623 -2.202,5.092 -1.469,1.469 -3.174,2.203 -5.115,2.203 -1.942,0 -3.64,-0.734 -5.092,-2.203 -1.452,-1.469 -2.179,-3.166 -2.179,-5.092 0,-1.926 0.727,-3.623 2.179,-5.092 C -3.64,0.732 -1.942,0 0,0" /></g><g
			transform="translate(279.4346,111.0393)" id="g32"><path
             id="path34"
             style="fill:#001e50;fill-opacity:1;fill-rule:nonzero;stroke:none"
             d="m 0,0 c 1.446,-2.996 2.191,-6.316 2.191,-9.98 0,-6.268 -2.115,-11.549 -6.346,-15.842 -4.231,-4.295 -9.386,-6.441 -15.464,-6.441 -6.078,0 -11.233,2.146 -15.464,6.441 -4.232,4.293 -6.347,9.574 -6.347,15.842 0,6.268 2.115,11.557 6.347,15.867 4.231,4.311 9.386,6.465 15.464,6.465 6.078,0 11.233,-2.154 15.464,-6.465 0.063,-0.065 0.116,-0.135 0.178,-0.2 l 9.936,9.936 c -7.007,6.527 -15.53,9.801 -25.578,9.801 -10.341,0 -19.072,-3.457 -26.192,-10.371 -7.12,-6.916 -10.681,-15.252 -10.681,-25.008 0,-9.757 3.561,-18.101 10.681,-25.033 7.12,-6.929 15.851,-10.394 26.192,-10.394 10.341,0 19.072,3.465 26.192,10.394 7.12,6.932 10.68,15.276 10.68,25.033 0,3.502 -0.467,6.819 -1.385,9.955 z" /></g><g
			transform="translate(348.1191,93.3172)" id="g36"><path
             id="path38"
             style="fill:#001e50;fill-opacity:1;fill-rule:nonzero;stroke:none"
             d="m 0,0 h 12.125 v -9.236 l -1.468,-1.233 c -1.011,-0.916 -2.763,-1.822 -5.258,-2.722 -2.494,-0.901 -5.257,-1.35 -8.289,-1.35 -6.345,0 -11.65,2.131 -15.914,6.395 -4.261,4.261 -6.393,9.566 -6.393,15.914 0,6.345 2.132,11.65 6.393,15.914 4.264,4.261 9.569,6.392 15.914,6.392 2.306,0 4.564,-0.355 6.774,-1.064 2.21,-0.711 3.994,-1.485 5.352,-2.323 1.358,-0.835 2.613,-1.806 3.765,-2.912 0.011,-0.01 0.019,-0.018 0.029,-0.028 l 9.258,9.257 c -0.468,0.435 -0.976,0.889 -1.566,1.381 -1.595,1.326 -3.426,2.652 -5.494,3.978 -2.069,1.326 -4.713,2.455 -7.934,3.387 -3.221,0.932 -6.615,1.396 -10.184,1.396 -10.356,0 -19.094,-3.457 -26.214,-10.371 -7.121,-6.916 -10.681,-15.252 -10.681,-25.007 0,-9.758 3.56,-18.102 10.681,-25.034 7.12,-6.929 15.858,-10.394 26.214,-10.394 3.6,0 7.097,0.473 10.492,1.42 3.394,0.947 6.141,1.998 8.241,3.15 2.099,1.153 4.089,2.479 5.968,3.979 1.878,1.5 3.094,2.556 3.647,3.172 0.553,0.617 0.955,1.082 1.208,1.398 V 10.656 L 0,10.656 Z" /></g><g
			transform="translate(186.7856,129.8421)" id="g40"><path
             id="path42"
             style="fill:#00b46e;fill-opacity:1;fill-rule:nonzero;stroke:none"
             d="M 0,0 C -0.355,0.982 -1.286,1.688 -2.39,1.688 L -2.392,1.689 H -32.716 V 1.688 c -1.409,0 -2.551,-1.142 -2.551,-2.55 0,-0.312 0.064,-0.607 0.166,-0.883 2.122,-5.113 3.293,-10.721 3.293,-16.593 0,-23.97 -19.502,-43.472 -43.473,-43.472 -23.971,0 -43.473,19.502 -43.473,43.472 0,23.971 19.502,43.473 43.473,43.473 11.105,0 21.251,-4.185 28.943,-11.062 0.505,-0.425 1.071,-0.68 1.739,-0.68 0.696,0 1.197,0.205 1.779,0.731 l -0.002,-0.002 0.001,10e-4 20.483,20.482 v 0.001 c 0.474,0.463 0.771,1.108 0.771,1.824 0,0.757 -0.336,1.429 -0.86,1.897 -13.844,12.918 -32.426,20.824 -52.854,20.824 -42.796,0 -77.489,-34.693 -77.489,-77.489 0,-42.795 34.693,-77.489 77.489,-77.489 42.796,0 77.489,34.694 77.489,77.489 C 2.208,-7.821 0,0 0,0" /></g></g></g></g></svg>