<?xml version="1.0" encoding="UTF-8" standalone="no"?>
<svg xmlns:dc="http://purl.org/dc/elements/1.1/" xmlns:cc="http://creativecommons.org/ns#" xmlns:rdf="http://www.w3.org/1999/02/22-rdf-syntax-ns#" xmlns="http://www.w3.org/2000/svg"
	 viewBox="0 0 297.34534 297.34534" height="297.34534" width="297.34534" xml:space="preserve" id="svg2" version="1.1"><metadata
     id="metadata8"><rdf:RDF><cc:Work
         rdf:about=""><dc:format>image/svg+xml</dc:format><dc:type rdf:resource="http://purl.org/dc/dcmitype/StillImage" /></cc:Work></rdf:RDF></metadata>
  <defs id="defs6"><clipPath
       id="clipPath18"
       clipPathUnits="userSpaceOnUse"><path
         id="path16"
         d="M 0,223.009 H 223.009 V 0 H 0 Z" /></clipPath></defs>
  <g transform="matrix(1.3333333,0,0,-1.3333333,0,297.34533)" id="g10"><g
       id="g12"><g
         clip-path="url(#clipPath18)"
         id="g14"><g
           transform="translate(186.7856,129.8421)"
           id="g20"><path
             id="path22"
             style="fill:#00b46e;fill-opacity:1;fill-rule:nonzero;stroke:none"
             d="M 0,0 C -0.355,0.982 -1.286,1.688 -2.39,1.688 L -2.392,1.689 H -32.716 V 1.688 c -1.409,0 -2.551,-1.142 -2.551,-2.55 0,-0.312 0.064,-0.607 0.166,-0.883 2.122,-5.113 3.293,-10.721 3.293,-16.593 0,-23.97 -19.502,-43.472 -43.473,-43.472 -23.971,0 -43.473,19.502 -43.473,43.472 0,23.971 19.502,43.473 43.473,43.473 11.105,0 21.251,-4.185 28.943,-11.062 0.505,-0.425 1.071,-0.68 1.739,-0.68 0.696,0 1.197,0.205 1.779,0.731 l -0.002,-0.002 0.001,10e-4 20.483,20.482 v 0.001 c 0.474,0.463 0.771,1.108 0.771,1.824 0,0.757 -0.336,1.429 -0.86,1.897 -13.844,12.918 -32.426,20.824 -52.854,20.824 -42.796,0 -77.489,-34.693 -77.489,-77.489 0,-42.795 34.693,-77.489 77.489,-77.489 42.796,0 77.489,34.694 77.489,77.489 C 2.208,-7.821 0,0 0,0" /></g></g></g></g></svg>