<?xml version="1.0" encoding="UTF-8" standalone="no"?>
<svg height="48" id="svg2870" version="1.1" viewBox="0 0 160 48.000002" width="160" xmlns="http://www.w3.org/2000/svg" xmlns:cc="http://creativecommons.org/ns#"
     xmlns:dc="http://purl.org/dc/elements/1.1/" xmlns:rdf="http://www.w3.org/1999/02/22-rdf-syntax-ns#">
    <defs id="defs2864" />
    <metadata id="metadata2867">
        <rdf:RDF>
            <cc:Work rdf:about="">
                <dc:format>image/svg+xml</dc:format>
                <dc:type rdf:resource="http://purl.org/dc/dcmitype/StillImage" />
                <dc:title></dc:title>
            </cc:Work>
        </rdf:RDF>
    </metadata>
    <g id="layer1" transform="translate(0,-1074.5196)">
        <g id="g2433" style="display:inline" transform="translate(0,1066.5196)">
            <g aria-label="FOCUS360" id="flowRoot890"
               style="font-style:normal;font-variant:normal;font-weight:normal;font-stretch:normal;font-size:16px;line-height:125%;font-family:Montserrat;-inkscape-font-specification:Montserrat;letter-spacing:0px;word-spacing:0px;display:inline;fill:#FFFFFF;fill-opacity:1;stroke:none"
               transform="translate(0,-2)">
                <path d="m 67.584,29.249496 v 3.408 h 5.408 v 1.76 h -5.408 v 4.288 h -2.08 v -11.2 h 8.176 v 1.744 z" id="path828"
                      style="font-style:normal;font-variant:normal;font-weight:600;font-stretch:normal;font-family:'Montserrat SemiBold';-inkscape-font-specification:'Montserrat SemiBold, Semi-Bold';fill:#FFFFFF" />
                <path
                    d="m 80.7985,38.865496 q -1.712,0 -3.088,-0.736 -1.376,-0.752 -2.16,-2.064 -0.784,-1.328 -0.784,-2.96 0,-1.632 0.784,-2.944 0.784,-1.328 2.16,-2.064 1.376,-0.752 3.088,-0.752 1.712,0 3.088,0.752 1.376,0.736 2.16,2.048 0.784,1.312 0.784,2.96 0,1.648 -0.784,2.96 -0.784,1.312 -2.16,2.064 -1.376,0.736 -3.088,0.736 z m 0,-1.824 q 1.12,0 2.016,-0.496 0.896,-0.512 1.408,-1.408 0.512,-0.912 0.512,-2.032 0,-1.12 -0.512,-2.016 -0.512,-0.912 -1.408,-1.408 -0.896,-0.512 -2.016,-0.512 -1.12,0 -2.016,0.512 -0.896,0.496 -1.408,1.408 -0.512,0.896 -0.512,2.016 0,1.12 0.512,2.032 0.512,0.896 1.408,1.408 0.896,0.496 2.016,0.496 z"
                    id="path830"
                    style="font-style:normal;font-variant:normal;font-weight:600;font-stretch:normal;font-family:'Montserrat SemiBold';-inkscape-font-specification:'Montserrat SemiBold, Semi-Bold';fill:#FFFFFF" />
                <path
                    d="m 94.21925,38.865496 q -1.696,0 -3.072,-0.736 -1.36,-0.752 -2.144,-2.064 -0.768,-1.312 -0.768,-2.96 0,-1.648 0.784,-2.96 0.784,-1.312 2.144,-2.048 1.376,-0.752 3.072,-0.752 1.376,0 2.512,0.48 1.136,0.48 1.92,1.392 l -1.344,1.264 q -1.216,-1.312 -2.992,-1.312 -1.152,0 -2.064,0.512 -0.912,0.496 -1.424,1.392 -0.512,0.896 -0.512,2.032 0,1.136 0.512,2.032 0.512,0.896 1.424,1.408 0.912,0.496 2.064,0.496 1.776,0 2.992,-1.328 l 1.344,1.28 q -0.784,0.912 -1.936,1.392 -1.136,0.48 -2.512,0.48 z"
                    id="path832"
                    style="font-style:normal;font-variant:normal;font-weight:600;font-stretch:normal;font-family:'Montserrat SemiBold';-inkscape-font-specification:'Montserrat SemiBold, Semi-Bold';fill:#FFFFFF" />
                <path
                    d="m 105.3825,38.865496 q -2.32,0 -3.616,-1.296 -1.296,-1.312 -1.296,-3.744 v -6.32 h 2.08 v 6.24 q 0,3.296 2.848,3.296 2.832,0 2.832,-3.296 v -6.24 h 2.048 v 6.32 q 0,2.432 -1.296,3.744 -1.28,1.296 -3.6,1.296 z"
                    id="path834"
                    style="font-style:normal;font-variant:normal;font-weight:600;font-stretch:normal;font-family:'Montserrat SemiBold';-inkscape-font-specification:'Montserrat SemiBold, Semi-Bold';fill:#FFFFFF" />
                <path
                    d="m 116.6635,38.865496 q -1.296,0 -2.512,-0.368 -1.2,-0.368 -1.904,-0.976 l 0.72,-1.616 q 0.688,0.544 1.68,0.896 1.008,0.336 2.016,0.336 1.248,0 1.856,-0.4 0.624,-0.4 0.624,-1.056 0,-0.48 -0.352,-0.784 -0.336,-0.32 -0.864,-0.496 -0.528,-0.176 -1.44,-0.4 -1.28,-0.304 -2.08,-0.608 -0.784,-0.304 -1.36,-0.944 -0.56,-0.656 -0.56,-1.76 0,-0.928 0.496,-1.68 0.512,-0.768 1.52,-1.216 1.024,-0.448 2.496,-0.448 1.024,0 2.016,0.256 0.992,0.256 1.712,0.736 l -0.656,1.616 q -0.736,-0.432 -1.536,-0.656 -0.8,-0.224 -1.552,-0.224 -1.232,0 -1.84,0.416 -0.592,0.416 -0.592,1.104 0,0.48 0.336,0.784 0.352,0.304 0.88,0.48 0.528,0.176 1.44,0.4 1.248,0.288 2.048,0.608 0.8,0.304 1.36,0.944 0.576,0.64 0.576,1.728 0,0.928 -0.512,1.68 -0.496,0.752 -1.52,1.2 -1.024,0.448 -2.496,0.448 z"
                    id="path836" style="letter-spacing:1px;fill:#FFFFFF" />
                <path
                    d="m 128.222,32.129496 q 1.552,0.192 2.368,1.056 0.816,0.864 0.816,2.16 0,0.976 -0.496,1.776 -0.496,0.8 -1.504,1.28 -0.992,0.464 -2.432,0.464 -1.2,0 -2.32,-0.336 -1.104,-0.352 -1.888,-0.96 l 0.896,-1.616 q 0.608,0.512 1.472,0.816 0.88,0.288 1.808,0.288 1.104,0 1.728,-0.448 0.64,-0.464 0.64,-1.248 0,-0.784 -0.608,-1.216 -0.592,-0.448 -1.824,-0.448 h -1.024 v -1.424 l 2.544,-3.024 h -5.088 v -1.744 h 7.632 v 1.392 z"
                    id="path838"
                    style="font-style:normal;font-variant:normal;font-weight:600;font-stretch:normal;font-family:'Montserrat SemiBold';-inkscape-font-specification:'Montserrat SemiBold, Semi-Bold';fill:#FFFFFF" />
                <path
                    d="m 137.8545,31.793496 q 1.104,0 1.984,0.432 0.88,0.416 1.376,1.2 0.496,0.784 0.496,1.808 0,1.088 -0.544,1.92 -0.544,0.816 -1.472,1.264 -0.928,0.448 -2.08,0.448 -2.304,0 -3.584,-1.44 -1.264,-1.44 -1.264,-4.128 0,-1.888 0.688,-3.216 0.688,-1.344 1.92,-2.032 1.248,-0.704 2.88,-0.704 0.864,0 1.616,0.192 0.768,0.176 1.328,0.528 l -0.768,1.568 q -0.832,-0.544 -2.128,-0.544 -1.616,0 -2.528,0.992 -0.912,0.992 -0.912,2.864 v 0.016 q 0.496,-0.576 1.264,-0.864 0.768,-0.304 1.728,-0.304 z m -0.352,5.44 q 0.976,0 1.584,-0.512 0.608,-0.528 0.608,-1.392 0,-0.88 -0.608,-1.392 -0.608,-0.512 -1.632,-0.512 -1.008,0 -1.648,0.544 -0.624,0.544 -0.624,1.376 0,0.816 0.608,1.36 0.624,0.528 1.712,0.528 z"
                    id="path840"
                    style="font-style:normal;font-variant:normal;font-weight:600;font-stretch:normal;font-family:'Montserrat SemiBold';-inkscape-font-specification:'Montserrat SemiBold, Semi-Bold';fill:#FFFFFF" />
                <path
                    d="m 147.46975,38.865496 q -1.344,0 -2.4,-0.672 -1.056,-0.688 -1.664,-1.984 -0.608,-1.312 -0.608,-3.104 0,-1.792 0.608,-3.088 0.608,-1.312 1.664,-1.984 1.056,-0.688 2.4,-0.688 1.344,0 2.4,0.688 1.072,0.672 1.68,1.984 0.608,1.296 0.608,3.088 0,1.792 -0.608,3.104 -0.608,1.296 -1.68,1.984 -1.056,0.672 -2.4,0.672 z m 0,-1.808 q 1.2,0 1.888,-0.992 0.704,-0.992 0.704,-2.96 0,-1.968 -0.704,-2.96 -0.688,-0.992 -1.888,-0.992 -1.184,0 -1.888,0.992 -0.688,0.992 -0.688,2.96 0,1.968 0.688,2.96 0.704,0.992 1.888,0.992 z"
                    id="path842"
                    style="font-style:normal;font-variant:normal;font-weight:600;font-stretch:normal;font-family:'Montserrat SemiBold';-inkscape-font-specification:'Montserrat SemiBold, Semi-Bold';fill:#FFFFFF" />
            </g>
            <g id="g1534" style="display:inline;fill:#FFFFFF" transform="matrix(1.9669494,0,0,1.9669494,6.8637168,-559.54434)">
                <path
                    d="m 13.82084,299.21682 c -1.140426,0 -2.05832,0.91789 -2.05832,2.05833 v 2.2825 c 0.53171,-0.2956 1.073533,-0.6132 1.62406,-0.95148 1.79897,-1.10542 3.395703,-2.2607 4.646224,-3.36994 -0.06505,-0.006 -0.127467,-0.0194 -0.19418,-0.0194 z m 5.428244,0.56313 c -1.147805,1.43455 -2.817306,2.92852 -4.86865,4.18902 -0.87273,0.53626 -1.753591,0.99095 -2.614384,1.36633 0.02299,1.12018 0.928894,2.01594 2.05479,2.01594 h 4.017784 c 1.140427,0 2.05832,-0.91789 2.05832,-2.05831 v -4.01778 c 0,-0.59199 -0.250409,-1.12034 -0.64786,-1.4952 z"
                    id="rect1524" style="opacity:1;fill:#FFFFFF;fill-opacity:1;stroke:none;stroke-width:0.19173023;stroke-miterlimit:4;stroke-dasharray:none;stroke-opacity:1" />
                <path
                    d="m 6.397993,300.37444 c -2.9915987,2.64675 -4.3686548,5.23509 -3.5572916,6.68636 1.1843985,2.11596 6.2628654,1.78705 12.4536256,-1.89961 6.190766,-3.68668 8.54121,-7.78175 7.35681,-9.89772 -0.80837,-1.43396 -3.62573,-1.50939 -7.298013,-0.1953 0.366259,-0.11915 0.708981,8.7e-4 1.049994,-0.0848 2.363832,-0.59365 4.095391,-0.6067 4.652447,0.37886 1.003959,1.79361 -2.379016,5.07095 -7.165704,7.92149 -4.7866889,2.85051 -9.164469,4.1948 -10.1684318,2.40117 -0.5452207,-0.98145 0.3074243,-2.43601 1.9527192,-4.22977 0.2759119,-0.30081 0.3940351,-0.77234 0.7238446,-1.08071 z"
                    id="path1528" style="opacity:1;fill:#FFFFFF;fill-opacity:1;stroke:none;stroke-width:0.72600335;stroke-miterlimit:4;stroke-dasharray:none;stroke-opacity:1" />
                <rect height="6.0944743" id="rect1530" ry="1.6586597"
                      style="opacity:1;fill:#FFFFFF;fill-opacity:1;stroke:none;stroke-width:0.14352284;stroke-miterlimit:4;stroke-dasharray:none;stroke-opacity:1" width="6.0838466" x="4.6448994"
                      y="296.16641" />
                <rect height="5.084002" id="rect1532" ry="1.2936497"
                      style="opacity:1;fill:#FFFFFF;fill-opacity:1;stroke:none;stroke-width:0.11983124;stroke-miterlimit:4;stroke-dasharray:none;stroke-opacity:1" width="5.0840154" x="11.76252"
                      y="293.116" />
            </g>
            <rect height="48" id="rect2420" style="opacity:0.5;fill:none;fill-opacity:1;stroke:none;stroke-width:1.62552965;stroke-miterlimit:4;stroke-dasharray:none;stroke-opacity:1" width="160"
                  x="0" y="8" />
        </g>
    </g>
</svg>
